<svg width="11" height="11" viewBox="0 0 11 11" fill="none" xmlns="http://www.w3.org/2000/svg">
<path d="M3.77984 0C4.17493 0 4.49413 0.307227 4.49413 0.6875V1.375H7.35127V0.6875C7.35127 0.307227 7.67047 0 8.06556 0C8.46065 0 8.77984 0.307227 8.77984 0.6875V1.375H9.85127C10.4428 1.375 10.9227 1.83691 10.9227 2.40625V3.4375H0.922699V2.40625C0.922699 1.83691 1.40261 1.375 1.99413 1.375H3.06556V0.6875C3.06556 0.307227 3.38475 0 3.77984 0ZM0.922699 4.125H10.9227V9.96875C10.9227 10.5381 10.4428 11 9.85127 11H1.99413C1.40261 11 0.922699 10.5381 0.922699 9.96875V4.125ZM2.35127 5.84375V6.53125C2.35127 6.72031 2.51198 6.875 2.70841 6.875H3.4227C3.61913 6.875 3.77984 6.72031 3.77984 6.53125V5.84375C3.77984 5.65469 3.61913 5.5 3.4227 5.5H2.70841C2.51198 5.5 2.35127 5.65469 2.35127 5.84375ZM5.20841 5.84375V6.53125C5.20841 6.72031 5.36913 6.875 5.56556 6.875H6.27984C6.47627 6.875 6.63698 6.72031 6.63698 6.53125V5.84375C6.63698 5.65469 6.47627 5.5 6.27984 5.5H5.56556C5.36913 5.5 5.20841 5.65469 5.20841 5.84375ZM8.4227 5.5C8.22627 5.5 8.06556 5.65469 8.06556 5.84375V6.53125C8.06556 6.72031 8.22627 6.875 8.4227 6.875H9.13698C9.33341 6.875 9.49413 6.72031 9.49413 6.53125V5.84375C9.49413 5.65469 9.33341 5.5 9.13698 5.5H8.4227ZM2.35127 8.59375V9.28125C2.35127 9.47031 2.51198 9.625 2.70841 9.625H3.4227C3.61913 9.625 3.77984 9.47031 3.77984 9.28125V8.59375C3.77984 8.40469 3.61913 8.25 3.4227 8.25H2.70841C2.51198 8.25 2.35127 8.40469 2.35127 8.59375ZM5.56556 8.25C5.36913 8.25 5.20841 8.40469 5.20841 8.59375V9.28125C5.20841 9.47031 5.36913 9.625 5.56556 9.625H6.27984C6.47627 9.625 6.63698 9.47031 6.63698 9.28125V8.59375C6.63698 8.40469 6.47627 8.25 6.27984 8.25H5.56556ZM8.06556 8.59375V9.28125C8.06556 9.47031 8.22627 9.625 8.4227 9.625H9.13698C9.33341 9.625 9.49413 9.47031 9.49413 9.28125V8.59375C9.49413 8.40469 9.33341 8.25 9.13698 8.25H8.4227C8.22627 8.25 8.06556 8.40469 8.06556 8.59375Z" fill="#6536E7"/>
</svg>
