<svg width="11" height="13" viewBox="0 0 11 13" fill="none" xmlns="http://www.w3.org/2000/svg">
<path d="M5.30554 12.7079C3.9696 11.0736 0.922729 7.11255 0.922729 4.88765C0.922729 2.18926 3.16231 0 5.92273 0C8.68315 0 10.9227 2.18926 10.9227 4.88765C10.9227 7.11255 7.87585 11.0736 6.53992 12.7079C6.2196 13.0974 5.62585 13.0974 5.30554 12.7079ZM5.92273 3.25843C5.4807 3.25843 5.05678 3.43008 4.74422 3.73562C4.43166 4.04116 4.25606 4.45555 4.25606 4.88765C4.25606 5.31974 4.43166 5.73414 4.74422 6.03968C5.05678 6.34522 5.4807 6.51686 5.92273 6.51686C6.36476 6.51686 6.78868 6.34522 7.10124 6.03968C7.4138 5.73414 7.5894 5.31974 7.5894 4.88765C7.5894 4.45555 7.4138 4.04116 7.10124 3.73562C6.78868 3.43008 6.36476 3.25843 5.92273 3.25843Z" fill="#6536E7"/>
</svg>
